<svg width="132" height="105" viewBox="0 0 132 105" fill="none" xmlns="http://www.w3.org/2000/svg">
<rect width="132" height="105" rx="5" fill="#C4C4C4"/>
<path d="M26 10.9012C26 8.7479 27.7262 7 29.8528 7H101.147C103.277 7 105 8.74503 105 10.9012V29.0989C105 31.2521 103.274 33 101.147 33H29.8528C27.7234 33 26 31.255 26 29.0989V10.9012Z" fill="#444444"/>
<path d="M26 42.9012C26 40.7479 27.7262 39 29.8528 39H101.147C103.277 39 105 40.745 105 42.9012V61.0989C105 63.2521 103.274 65 101.147 65H29.8528C27.7234 65 26 63.255 26 61.0989V42.9012Z" fill="#444444"/>
<path d="M26 74.9012C26 72.7479 27.7262 71 29.8528 71H101.147C103.277 71 105 72.745 105 74.9012V93.0989C105 95.2521 103.274 97 101.147 97H29.8528C27.7234 97 26 95.255 26 93.0989V74.9012Z" fill="#444444"/>
</svg>
