<svg width="132" height="105" viewBox="0 0 132 105" fill="none" xmlns="http://www.w3.org/2000/svg">
<rect width="132" height="105" rx="5" fill="#C4C4C4"/>
<path d="M107.897 34.5659H110.194V41.4791H107.897V34.5659ZM20.6613 32.2604V43.7813H112.487V32.2604H20.6613ZM107.897 48.3923H110.194V55.3055H107.897V48.3923ZM20.6613 46.0868V57.6077H112.487V46.0868H20.6613ZM107.897 62.2187H110.194V69.1319H107.897V62.2187ZM20.6613 59.9132V71.4341H112.487V59.9132H20.6613ZM107.897 76.0451H110.194V82.9582H107.897V76.0451ZM20.6613 73.7396V85.2604H112.487V73.7396H20.6613Z" fill="#444444"/>
<rect x="21" y="19" width="17" height="5" fill="#0C6DFF"/>
<rect x="40" y="19" width="17" height="5" fill="#9E9494"/>
</svg>
