<svg width="132" height="105" viewBox="0 0 132 105" fill="none" xmlns="http://www.w3.org/2000/svg">
<rect width="132" height="105" rx="5" fill="#C4C4C4"/>
<path d="M73.8968 34.5659H76.1936V41.4791H73.8968V34.5659ZM20.6613 32.2604V43.7813H78.4871V32.2604H20.6613ZM73.8968 48.3923H76.1936V55.3055H73.8968V48.3923ZM20.6613 46.0868V57.6077H78.4871V46.0868H20.6613ZM73.8968 62.2187H76.1936V69.1319H73.8968V62.2187ZM20.6613 59.9132V71.4341H78.4871V59.9132H20.6613ZM73.8968 76.0451H76.1936V82.9582H73.8968V76.0451ZM20.6613 73.7396V85.2604H78.4871V73.7396H20.6613Z" fill="#444444"/>
<rect x="21" y="19" width="17" height="5" fill="#0C6DFF"/>
<rect x="40" y="19" width="17" height="5" fill="#9E9494"/>
<path d="M84.5194 34.4325H114.206V41.2805H84.5194V34.4325ZM82.2226 32.1487V43.5609H116.5V32.1487H82.2226ZM84.5194 50.4089H114.206V57.2569H84.5194V50.4089ZM82.2226 48.1284V59.5406H116.5V48.1284H82.2226ZM84.5194 66.3886H114.206V73.2366H84.5194V66.3886ZM82.2226 64.1048V75.517H116.5V64.1048H82.2226Z" fill="#444444"/>
</svg>
